:SAMPLES-PER-SECOND 24
:FULLY-SPECIFIED
:DEGREES
368
root  -3.40184 42.1981 26.0277 95.127 66.3457 93.9623
RightUpLeg  -11.0774 -34.007 -17.0441
RightLeg  32.1037 19.4385 11.9523
RightFoot  6.45285 -2.47237 16.241
RightToes  -1.46203e-006 3.27826e-006 1.63871e-007
Spine  2.60072 3.02505 8.2951
Spine1  17.3586 7.17838 -11.3575
HEad  -9.9795 55.6622 -28.3562
LeftShoulder1  2.40831 -3.93246 -26.2537
LeftArm  16.5459 22.4533 -30.1763
LeftForeArm  154.644 -71.4464 -148.98
LeftHand  -0.262305 3.63394 16.8677
RightShoulder  3.6558 6.15869 31.9502
RightArm  17.8753 -23.9612 29.3118
RightForeArm  155.757 63.6783 158.631
RightHand  -0.217305 0.61353 -4.2911
LeftUpLeg  -17.7565 35.2507 -5.11341
LeftLeg  39.8324 -21.3726 -17.8095
LeftFoot  15.4421 9.40026 -38.5725
LeftToes  1.24767e-006 1.47042e-008 1.32732e-009
369
root  -3.29305 41.2784 26.5454 91.1497 73.4706 92.0168
RightUpLeg  -13.8639 -28.3362 -17.4111
RightLeg  46.5237 18.295 19.0846
RightFoot  2.68575 -2.19994 17.7385
RightToes  -1.46203e-006 3.27826e-006 1.63871e-007
Spine  3.11844 3.2883 7.07951
Spine1  17.9993 6.07099 -8.14145
HEad  -14.3031 57.0775 -28.1554
LeftShoulder1  2.05304 -3.57726 -22.6824
LeftArm  15.4361 22.0298 -38.4867
LeftForeArm  142.709 -75.701 -137.211
LeftHand  -0.24787 3.95379 19.4297
RightShoulder  3.68447 6.2831 31.7608
RightArm  17.4376 -21.3956 28.6333
RightForeArm  155.368 64.554 157.792
RightHand  -0.207948 -0.278173 -4.74371
LeftUpLeg  -9.40356 35.054 -1.99536
LeftLeg  26.8696 -19.9843 -10.2666
LeftFoot  14.9187 8.36147 -35.5011
LeftToes  1.24767e-006 1.47042e-008 1.32732e-009
370
root  -3.2263 40.0844 27.1887 94.281 80.2493 97.3856
RightUpLeg  -13.174 -28.54 -20.1532
RightLeg  50.832 8.44059 10.5115
RightFoot  -1.22774 -0.890384 9.80785
RightToes  -1.46203e-006 3.27826e-006 1.63871e-007
Spine  4.82566 3.15757 5.99877
Spine1  15.9392 4.50071 -4.85367
HEad  -15.7575 58.5387 -26.246
LeftShoulder1  1.78499 -3.29604 -19.7785
LeftArm  17.1942 18.02 -41.4296
LeftForeArm  125.62 -78.4819 -121.431
LeftHand  -0.2926 3.80062 21.0094
RightShoulder  3.58772 6.29242 30.7235
RightArm  16.7649 -20.0413 30.9919
RightForeArm  154.339 65.3777 156.89
RightHand  -0.232742 -1.01463 -6.09913
LeftUpLeg  -3.7249 31.2026 1.72497
LeftLeg  21.0072 -11.5622 -5.68514
LeftFoot  6.53786 3.0118 -18.7039
LeftToes  1.24767e-006 1.47042e-008 1.32732e-009
371
root  -3.38191 38.7993 28.1502 136.95 82.683 140.167
RightUpLeg  -11.5914 -31.4967 -24.6612
RightLeg  49.5766 0.966128 0.875881
RightFoot  -2.36731 -0.196569 2.29833
RightToes  -1.46203e-006 3.27826e-006 1.63871e-007
Spine  4.98289 2.60117 2.58594
Spine1  14.6594 2.34219 -1.35201
HEad  -21.0948 57.85 -28.363
LeftShoulder1  1.8742 -3.24178 -21.4165
LeftArm  19.1061 5.86769 -37.2693
LeftForeArm  95.7226 -80.1305 -90.8819
LeftHand  -0.286844 3.5756 17.9214
RightShoulder  3.52089 6.14563 30.588
RightArm  13.5077 -18.0979 34.2197
RightForeArm  152.3 67.0022 154.908
RightHand  -0.185917 -1.50664 -5.38329
LeftUpLeg  -7.56447 25.427 3.16265
LeftLeg  24.4831 -2.34242 -0.807875
LeftFoot  -5.76025 0.19044 -3.19745
LeftToes  1.24767e-006 1.47042e-008 1.32732e-009
372
root  -3.5655 37.8219 29.4251 172.697 79.3613 176.318
RightUpLeg  -7.08929 -30.5059 -29.0729
RightLeg  44.4115 -0.429335 -0.784906
RightFoot  -0.938277 -0.0244159 0.185394
RightToes  -1.46203e-006 3.27826e-006 1.63871e-007
Spine  5.16017 2.53133 0.730095
Spine1  16.1294 1.7921 -0.12698
HEad  -27.4158 53.7628 -29.1329
LeftShoulder1  2.04123 -3.6371 -22.2857
LeftArm  17.778 -8.14987 -35.7737
LeftForeArm  59.4653 -77.3043 -48.3703
LeftHand  -0.197781 3.97384 15.6353
RightShoulder  3.60806 6.05133 31.8757
RightArm  8.91611 -15.0383 37.2107
RightForeArm  146.099 71.5945 147.338
RightHand  -0.119492 -3.33634 -6.34209
LeftUpLeg  -13.5126 19.8088 7.90092
LeftLeg  32.2589 0.831717 0.849388
LeftFoot  -10.2475 0.0878204 -2.9782
LeftToes  1.24767e-006 1.47042e-008 1.32732e-009
